<?xml version="1.0" encoding="UTF-8" standalone="no"?>
<!-- Created with Inkscape (http://www.inkscape.org/) -->

<svg
   version="1.1"
   id="svg59"
   width="725.71429"
   height="578.65356"
   viewBox="0 0 725.71429 578.65356"
   xmlns="http://www.w3.org/2000/svg"
   xmlns:svg="http://www.w3.org/2000/svg">
  <defs
     id="defs63" />
  <g
     id="g65"
     transform="translate(-14.48739,-73.657951)">
    <path
       style="fill:#000000"
       d="m 600.2535,652.00382 c -0.35896,-0.35895 -3.26956,-1.01936 -6.46801,-1.46757 -9.24236,-1.29515 -13.82894,-2.72456 -24.66228,-7.68596 -9.28578,-4.25265 -22.67774,-12.51116 -23.48642,-14.48351 -0.18334,-0.44715 -0.8667,-0.813 -1.51858,-0.813 -1.81088,0 -19.59957,-16.98882 -25.8409,-24.67896 -6.9916,-8.61458 -18.29155,-25.11029 -19.22932,-28.07104 -0.42325,-1.33631 -0.29521,-2.25 0.31532,-2.25 1.21136,0 1.63945,0.49216 7.82823,9 5.84405,8.03393 24.71239,27.06263 28.77858,29.02316 1.65,0.79555 5.25,3.04123 8,4.9904 6.74262,4.77909 19.07279,10.33371 30,13.5147 14.68405,4.27463 38.06883,3.61525 51,-1.43806 12.22991,-4.77927 18.44508,-9.05382 31.32715,-21.54562 14.66163,-14.21745 22.42325,-28.44361 31.12283,-57.04458 6.53994,-21.50087 8.47217,-60.73905 4.13646,-84 -0.51259,-2.75 -1.43606,-7.82068 -2.05217,-11.26818 -0.6161,-3.44749 -1.74322,-8.39749 -2.5047,-11 -0.76148,-2.6025 -2.15404,-7.43182 -3.09458,-10.73182 -0.94054,-3.3 -2.01712,-6.45 -2.3924,-7 -0.37529,-0.55 -1.30588,-3.025 -2.06799,-5.5 -3.3251,-10.79849 -12.50289,-29.37955 -18.66319,-37.78492 -2.30373,-3.14329 -5.22873,-7.21266 -6.5,-9.04303 -8.35267,-12.02613 -21.03487,-23.64535 -36.31141,-33.26793 -6.25315,-3.93881 -21.00497,-9.90318 -28.33774,-11.45734 -12.95468,-2.74572 -28.8801,-1.75184 -42.5982,2.65848 -9.32938,2.99936 -10.56591,4.13215 -10.55324,9.66779 0.006,2.59982 0.68096,6.93597 1.5,9.63588 0.81905,2.69991 1.48918,6.63741 1.48918,8.75 0,5.02466 1.27751,5.10656 11.5,0.73719 7.27701,-3.11038 7.99548,-3.28618 23,-5.62788 5.69247,-0.8884 5.61356,-0.55813 2.57295,-10.76824 -1.14654,-3.85 -1.8635,-7.58235 -1.59324,-8.2941 0.35467,-0.9341 2.51223,-1.21229 7.75583,-1 l 7.26446,0.2941 0.8114,4.5 c 0.44627,2.475 1.12127,7.19569 1.5,10.49042 0.56739,4.93596 1.04065,6.04519 2.6886,6.30155 6.09285,0.94782 24.7202,10.86401 32.13989,17.10955 8.78018,7.39072 19.62919,18.36423 21.36797,21.61318 1.95384,3.65078 0.17934,4.46239 -2.30374,1.05367 -6.03305,-8.28204 -23.69124,-22.18749 -32.06024,-25.24676 -24.51659,-8.96198 -45.2691,-6.63188 -63.14388,7.08982 -8.69279,6.67307 -8.06913,3.83869 -5.97993,27.1775 1.74457,19.48891 2.64076,23.44458 5.30136,23.3996 0.37321,-0.006 1.5435,-1.81666 2.60064,-4.02301 1.05714,-2.20634 4.43214,-6.65606 7.5,-9.88826 6.24393,-6.57841 13.34775,-10.36152 24.57793,-13.08886 l 7,-1.70001 -0.29641,-4.3942 c -0.16303,-2.4168 -0.68052,-5.29419 -1.14998,-6.39419 -1.97387,-4.62501 -4.16923,-13.5039 -3.57618,-14.46348 0.69789,-1.12921 6.40317,-1.4033 8.94078,-0.42953 1.05506,0.40486 1.58179,1.86149 1.58179,4.37427 0,2.07201 0.675,5.68044 1.5,8.01874 0.825,2.3383 1.5,6.40912 1.5,9.04627 0,4.58862 0.13866,4.82527 3.22435,5.50301 1.77339,0.3895 8.4815,3.39604 14.90689,6.6812 10.6601,5.45027 12.3252,6.69634 19.02565,14.23772 10.55347,11.87798 17.17746,25.57149 20.00704,41.35981 2.37079,13.22836 2.39546,13.94637 0.95231,27.71859 -1.85452,17.69809 -10.15195,36.59497 -20.96634,47.74958 -9.11301,9.39971 -19.79062,13.69319 -34.38481,13.82617 -5.17762,0.0472 -10.5886,-0.45265 -12.26509,-1.13297 -10.98073,-4.45599 -17.50664,-8.38783 -22.74774,-13.7054 -6.2979,-6.38981 -16.26786,-20.10171 -15.31143,-21.05814 0.33492,-0.33492 4.08524,3.03846 8.33406,7.49639 10.87097,11.40604 22.05485,16.17202 34.69312,14.78439 7.97334,-0.87544 13.46325,-3.53311 19.24826,-9.31813 5.3196,-5.3196 8.27162,-10.68391 10.83473,-19.68849 0.93933,-3.3 2.09963,-7.03367 2.57844,-8.29705 1.43219,-3.77896 1.05132,-29.26781 -0.51216,-34.27481 -0.7605,-2.43548 -1.97798,-6.45314 -2.70553,-8.92814 -3.80718,-12.95146 -14.5231,-28.77312 -23.27675,-34.36727 -12.04783,-7.69935 -22.5808,-8.65883 -33.94874,-3.09249 -6.42558,3.1463 -17.39264,13.92247 -19.60513,19.2639 -0.72807,1.75772 -1.65196,3.19586 -2.05308,3.19586 -0.40112,0 -1.49503,-3.4875 -2.4309,-7.75 -0.93587,-4.2625 -2.10928,-9.325 -2.60757,-11.25 -0.4983,-1.925 -1.4014,-5.975 -2.00689,-9 -0.60549,-3.025 -1.7493,-7.5854 -2.54179,-10.13421 -0.7925,-2.54882 -1.4409,-6.00976 -1.4409,-7.69099 0,-1.68122 -0.40247,-3.3055 -0.89437,-3.60952 -0.4919,-0.30401 -1.13643,-2.24306 -1.43229,-4.30901 -0.29586,-2.06595 -1.27853,-6.68127 -2.18371,-10.25627 -0.90519,-3.575 -2.06065,-8.4125 -2.56771,-10.75 -2.30901,-10.64443 -2.89874,-13.0782 -4.36156,-18 -0.8582,-2.8875 -2.26565,-7.6125 -3.12768,-10.5 -0.86202,-2.8875 -1.79268,-6.6 -2.06814,-8.25 -0.27545,-1.65 -0.88626,-3.9 -1.35736,-5 -0.47109,-1.1 -1.09096,-3.125 -1.37748,-4.5 -0.28653,-1.375 -1.26484,-4.975 -2.17402,-8 -0.90919,-3.025 -1.86755,-6.625 -2.1297,-8 -0.26214,-1.375 -0.85909,-3.4 -1.32653,-4.5 -0.46745,-1.1 -2.87217,-8.075 -5.34383,-15.5 -2.47165,-7.425 -5.20253,-14.85 -6.06861,-16.5 -0.86608,-1.65 -1.57746,-3.48492 -1.58085,-4.07759 -0.007,-1.23215 -4.55421,-13.04559 -6.02732,-15.65884 -0.53836,-0.95504 -0.97884,-2.61598 -0.97884,-3.69098 0,-1.07501 -0.45,-2.23267 -1,-2.57259 -0.55,-0.33992 -1,-1.42445 -1,-2.41008 0,-0.98562 -1.125,-3.90788 -2.5,-6.4939 -1.375,-2.58601 -2.5,-5.76554 -2.5,-7.0656 0,-1.30006 -0.35177,-2.51375 -0.7817,-2.69709 -0.69604,-0.2968 -3.34213,-5.44652 -7.36492,-14.33333 -1.18816,-2.62478 -10.23699,-19.31966 -16.49098,-30.42547 -1.17568,-2.08777 -3.80958,-6.22112 -5.85312,-9.18523 -3.39707,-4.92739 -3.54559,-5.41534 -1.73282,-5.69307 1.72916,-0.26493 15.00936,3.42318 20.72354,5.75522 1.1,0.44893 4.61848,1.64722 7.81884,2.66288 3.20036,1.01565 6.23447,2.34744 6.74245,2.95953 1.59856,1.92614 7.93871,14.51562 7.93871,15.76369 0,0.65573 1.35139,3.96222 3.00309,7.34776 4.05404,8.3097 14.1478,35.60575 17.49642,47.31469 1.49429,5.225 3.05584,10.4 3.47012,11.5 1.97505,5.24415 3.03037,9.38371 3.03037,11.88674 0,1.50961 0.53293,3.72766 1.1843,4.929 1.24151,2.2898 2.59974,8.28764 3.4857,15.39264 0.28862,2.3146 1.15594,4.7322 1.92738,5.37244 0.873,0.72453 1.40262,3.11907 1.40262,6.34162 0,2.84766 0.41792,5.60506 0.9287,6.12756 0.51079,0.5225 1.07329,2.525 1.25,4.45 0.44236,4.81879 2.95453,4.94656 10.73949,0.54624 3.45067,-1.95043 7.04071,-3.54624 7.97788,-3.54624 0.93716,0 2.13143,-0.39431 2.65393,-0.87624 0.5225,-0.48193 4.04119,-1.88649 7.81931,-3.12123 l 6.8693,-2.245 -0.58438,-4.12876 c -0.91365,-6.45512 -10.64162,-41.90865 -11.92271,-43.45227 -1.5745,-1.89716 -15.03991,-0.60909 -24.41077,2.33508 -1.84538,0.57978 -2.4965,0.028 -4.25,-3.60128 -1.13891,-2.35728 -2.07075,-5.25144 -2.07075,-6.43146 0,-1.18003 -0.3084,-2.45391 -0.68534,-2.83084 -0.92962,-0.92963 -3.27945,-7.78769 -3.30576,-9.648 -0.0117,-0.825 -0.69345,-2.78894 -1.51506,-4.36431 -0.82161,-1.57537 -1.49384,-3.66143 -1.49384,-4.63569 0,-0.97426 -0.67223,-3.06032 -1.49384,-4.63569 -0.82161,-1.57537 -1.49661,-3.87681 -1.5,-5.11431 -0.006,-2.22603 0.14235,-2.25 13.93482,-2.25 7.66754,0 14.19826,-0.41628 14.51271,-0.92506 0.56974,-0.92187 -0.10991,-2.98423 -3.48498,-10.57494 -0.97818,-2.2 -2.53326,-6.025 -3.45572,-8.5 -2.76142,-7.40905 -4.35529,-11.01232 -9.51025,-21.5 -2.7034,-5.5 -4.89886,-11.125 -4.87881,-12.5 0.02,-1.375 -0.2562,-3.62819 -0.61388,-5.00709 -0.45808,-1.76592 0.044,-3.53971 1.69827,-6 1.29174,-1.9211 3.56718,-5.51791 5.05654,-7.99291 3.04217,-5.05544 9.41981,-12.7057 9.98427,-11.97657 0.75117,0.97028 7.95192,18.67625 9.95426,24.47657 1.1392,3.3 3.13447,8.53127 4.43394,11.62505 1.29947,3.09377 2.36267,6.32971 2.36267,7.19098 0,0.86126 0.39627,1.81084 0.8806,2.11018 0.48433,0.29933 1.10748,1.56338 1.38478,2.80901 0.27731,1.24563 1.68104,5.41283 3.11941,9.26045 1.43836,3.84761 2.61521,7.98356 2.61521,9.19098 0,1.20742 0.45,2.47343 1,2.81335 0.55,0.33992 1,1.50988 1,2.59992 0,1.09004 0.93902,4.88848 2.08672,8.44098 l 2.08672,6.4591 h 4.85426 c 2.66985,0 5.13238,0.45 5.4723,1 0.33992,0.55 2.39758,1 4.57259,1 2.175,0 4.73594,0.42362 5.69098,0.94138 0.95504,0.51776 4.43643,1.68349 7.73643,2.59052 13.97709,3.84171 41.20035,16.05042 53.78118,24.11904 3.72965,2.39198 7.04436,4.34906 7.36603,4.34906 1.08032,0 23.7512,17.17464 26.35279,19.96393 0.275,0.29484 3.65,3.20796 7.5,6.47361 3.85,3.26565 9.40492,8.44065 12.34427,11.5 6.93516,7.21832 26.19547,30.12203 26.96211,32.06246 0.32595,0.825 1.29036,2.25715 2.14313,3.18255 2.3093,2.506 5.46024,8.74103 4.76747,9.4338 -0.33242,0.33242 -3.49366,-1.80777 -7.02499,-4.75597 -3.53132,-2.94821 -8.79656,-7.16038 -11.70053,-9.36038 -2.90397,-2.2 -6.67754,-5.14648 -8.3857,-6.54773 -13.57072,-11.13238 -37.92565,-25.90857 -59.78406,-36.27112 -4.22306,-2.00206 -7.96212,-4.09934 -8.30902,-4.66063 -0.34689,-0.56128 -1.51026,-1.02052 -2.58527,-1.02052 -1.075,0 -2.73594,-0.43247 -3.69098,-0.96105 -4.89912,-2.71149 -13.1773,-6.03895 -15.0239,-6.03895 -1.15197,0 -2.34055,-0.39812 -2.64127,-0.8847 -0.30073,-0.48659 -1.78979,-1.1313 -3.30902,-1.43269 -1.51923,-0.30139 -5.23724,-1.30993 -8.26224,-2.24119 -6.14744,-1.89254 -14.35255,-3.30026 -23.84916,-4.09171 l -6.34916,-0.52914 0.65852,3.33971 c 0.36219,1.83685 1.11269,5.81472 1.66778,8.83972 0.55508,3.025 1.40804,7.075 1.89545,9 0.48741,1.925 1.20058,7.775 1.58482,13 1.00066,13.60737 1.1735,13.78138 14.21678,14.31333 5.87123,0.23945 12.69997,0.91692 15.17497,1.50548 7.66558,1.8229 13.87084,3.7187 14.61822,4.46607 0.39331,0.39332 1.71001,0.71512 2.926,0.71512 1.21599,0 2.77109,0.675 3.45578,1.5 0.68469,0.825 1.82226,1.5 2.52794,1.5 0.70568,0 3.23808,0.9639 5.62756,2.14199 2.38947,1.1781 5.4695,2.63925 6.8445,3.24701 9.94759,4.39686 33.43142,24.68699 46.08834,39.82052 10.9073,13.04157 21.78824,31.62033 28.86773,49.29048 1.76284,4.4 3.85175,9.575 4.642,11.5 1.66742,4.06167 6.199,19.66611 7.40529,25.5 4.10108,19.83367 5.09704,30.29474 4.61751,48.5 -0.74775,28.38759 -1.96396,37.32648 -7.48322,55 -4.34182,13.90314 -6.72992,19.9233 -12.74485,32.12842 -2.96604,6.01852 -5.3928,11.17569 -5.3928,11.46039 0,1.69773 -12.74943,17.26826 -20.9035,25.52888 -10.34532,10.48051 -17.55403,16.14352 -28.65733,22.51263 -7.76799,4.4559 -19.83542,9.36968 -23.01038,9.36968 -1.11584,0 -2.45629,0.40852 -2.97879,0.90781 -0.5225,0.4993 -3.425,1.20682 -6.45,1.57226 -8.38294,1.01273 -31.47851,1.70808 -32.21662,0.96997 z m -18.28338,-50.93901 c -3.85,-0.70042 -8.35,-1.7145 -10,-2.2535 -4.60909,-1.50564 -20.40814,-9.9498 -26,-13.89629 -6.39232,-4.51142 -18.13437,-15.66057 -21.95696,-20.84829 -16.91965,-22.96198 -26.37251,-43.96522 -30.83544,-68.51295 -1.34393,-7.39212 -1.29093,-47.98518 0.0725,-55.5 2.09329,-11.53794 5.06106,-20.40095 10.81577,-32.30037 4.54524,-9.39861 13.87584,-24.19963 15.25547,-24.19963 1.60145,0 3.14866,2.52621 3.14866,5.14098 0,1.50754 0.45,3.0191 1,3.35902 0.55,0.33992 1,1.66504 1,2.94471 0,1.27967 0.67223,3.61561 1.49384,5.19098 1.86022,3.56681 1.89144,5.8137 0.12798,9.21002 -2.14746,4.13588 -3.42865,7.43129 -3.9478,10.15429 -0.26215,1.375 -1.23009,4.975 -2.15099,8 -3.14558,10.3328 -3.81051,16.50799 -3.87638,36 -0.0651,19.26842 0.1026,20.84527 4.30744,40.5 1.33801,6.25426 3.14547,11.90961 4.13884,12.95 0.49889,0.5225 0.90707,1.88833 0.90707,3.03519 0,2.93301 12.77995,28.02976 16.34401,32.0957 0.92522,1.05551 4.35981,5.13796 7.63244,9.07211 9.92831,11.93523 17.74663,17.53413 35.2843,25.26794 7.06281,3.11458 23.00728,3.89014 32.19968,1.56624 14.54977,-3.67829 25.9092,-10.76497 38.95427,-24.30195 4.90684,-5.09187 7.00044,-8.38404 10.81087,-17 2.59906,-5.87688 4.73656,-11.24773 4.75,-11.93523 0.031,-1.58807 2.02443,-1.65798 2.02443,-0.071 0,4.26113 -7.49274,20.43171 -14.37258,31.01842 -10.95857,16.86306 -23.91386,27.12761 -42.62742,33.77392 -8.90907,3.16415 -22.28873,3.76127 -34.5,1.53969 z M 130.34449,555.56782 c -5.86215,-0.75416 -13.54262,-3.03843 -20.37437,-6.0596 -2.2,-0.97289 -4.69934,-1.98769 -5.55409,-2.2551 -3.666,-1.14694 -16.6906,-10.4372 -23.07132,-16.45645 -6.544881,-6.17412 -15.441881,-16.96638 -16.687951,-20.24289 -0.31375,-0.825 -2.5091,-4.34094 -4.87855,-7.81321 -3.74473,-5.48763 -5.30686,-9.18679 -3.87952,-9.18679 0.65507,0 2.76174,2.25001 6.07143,6.48453 10.72312,13.71952 22.509991,24.10084 32.799921,28.88862 11.31234,5.2635 15.59211,6.09002 31.20008,6.02539 12.02884,-0.0498 15.59423,-0.39133 18,-1.72417 1.65,-0.91413 3.48252,-1.66482 4.07227,-1.66821 2.86545,-0.0165 24.42773,-17.50382 24.42773,-19.81128 0,-0.499 1.49809,-2.88449 3.32908,-5.30108 3.73478,-4.92925 7.69827,-13.14368 9.59883,-19.8938 0.69686,-2.475 1.70818,-5.33746 2.24737,-6.36103 1.36213,-2.58578 2.71531,-10.36498 3.85104,-22.13897 1.49454,-15.49374 1.53058,-17.21206 0.62422,-29.76296 -1.02713,-14.22336 -1.85477,-15.38271 -9.36737,-13.12175 -2.53057,0.76159 -6.66701,1.39082 -9.1921,1.39829 -2.52509,0.007 -7.29107,0.8257 -10.59107,1.81828 l -6,1.80469 0.35627,8.55702 c 0.23065,5.53976 -0.0338,8.79812 -0.75,9.24075 -0.60845,0.37604 -1.10627,2.29744 -1.10627,4.26977 0,5.11424 -6.13948,17.28575 -10.87901,21.56764 -7.21273,6.51626 -12.84463,8.69213 -22.5529,8.71321 -6.23569,0.0136 -7.56552,-0.36158 -13.24042,-3.73494 -3.46969,-2.0625 -6.54003,-4.44889 -6.82299,-5.3031 -0.28296,-0.8542 -2.072981,-3.1042 -3.977821,-5 -4.770789,-4.74812 -4.563439,-7.33833 0.22314,-2.78746 3.306981,3.14413 5.418711,4.49428 12.486431,7.98335 2.37119,1.17057 7.50671,1.08183 8.26357,-0.14279 0.33992,-0.55 1.60857,-1 2.81924,-1 2.79426,0 7.12418,-3.98868 9.60167,-8.84497 7.53026,-14.76054 3.56291,-39.66688 -8.09011,-50.78824 -5.33507,-5.09166 -7.75524,-6.37108 -12.01506,-6.35173 -8.38985,0.0381 -16.22062,5.472 -19.79338,13.73494 -0.53507,1.2375 -1.434,2.25 -1.99761,2.25 -1.24455,0 -1.27791,-0.50525 -0.18245,-2.76357 0.46326,-0.95504 1.91881,-3.98643 3.23456,-6.73643 3.24832,-6.78922 11.15952,-15.10007 15.21693,-15.98564 1.76342,-0.38489 6.19332,-0.91802 9.84424,-1.18474 10.32661,-0.75444 16.1035,1.67146 26.36197,11.07017 3.52755,3.23191 4.44808,3.59968 7.79367,3.11369 2.08653,-0.3031 4.56153,-0.95407 5.5,-1.44661 0.93848,-0.49253 4.18133,-1.8809 7.20633,-3.08525 17.2892,-6.88342 17.45243,-6.98444 17.79466,-11.01304 0.21813,-2.56785 -0.97443,-5.93818 -4.59238,-12.97864 -14.27519,-27.77917 -33.36513,-45.61893 -54.13108,-50.58608 -12.96578,-3.10138 -25.870621,-1.24911 -39.79775,5.71229 -6.65135,3.32464 -10.301041,6.14854 -19.060681,14.74792 -9.99296,9.81015 -11.22618,11.45116 -15.88368,21.13593 -6.1037,12.69201 -7.5772,16.68294 -7.42943,20.12244 0.062,1.44234 -0.56511,3.18494 -1.3935,3.87244 -0.82839,0.68751 -1.50616,2.18491 -1.50616,3.32756 0,1.53448 -0.29302,1.78454 -1.12094,0.95662 -0.82792,-0.82792 -0.69722,-2.3645 0.5,-5.87814 0.89151,-2.61646 1.62094,-5.81406 1.62094,-7.10578 0,-2.32562 4.1041,-16.01077 6.53624,-21.79514 13.52213,-32.15973 36.237471,-53.3643 62.963761,-58.7761 6.01639,-1.21825 28.21429,-1.41312 34.5,-0.30285 23.93378,4.22749 49.82052,21.75696 66.36191,44.93764 2.55095,3.57484 4.63809,6.98156 4.63809,7.5705 0,0.58895 0.3375,1.07366 0.75,1.07713 0.4125,0.003 1.51657,1.35348 2.45349,3 1.00214,1.76114 2.52795,2.99368 3.70599,2.99368 2.59135,0 11.88316,-5.48421 15.0122,-8.86049 3.86116,-4.16627 25.29062,-35.62947 29.38214,-43.13951 1.04875,-1.925 2.75943,-4.429 3.8015,-5.56445 1.04207,-1.13545 1.89468,-2.37705 1.89468,-2.75912 0,-0.38207 2.9485,-4.62807 6.55222,-9.43555 3.60373,-4.80748 10.24123,-13.66312 14.75,-19.6792 12.98886,-17.33105 35.1793,-40.8469 48.19778,-51.07656 2.75,-2.16089 6.61576,-5.29154 8.59057,-6.95701 5.8184,-4.90696 24.6041,-17.52811 26.08936,-17.52811 0.45104,0 0.82007,-0.45 0.82007,-1 0,-0.55 0.7585,-1 1.68555,-1 0.92705,0 2.61455,-0.86793 3.75,-1.92873 2.54182,-2.37472 28.22749,-15.6732 38.90502,-20.14265 7.33197,-3.06906 8.00422,-3.18265 10.36345,-1.75115 1.38758,0.84193 4.25164,4.63393 6.36456,8.42666 7.54352,13.54071 17.93145,35.42164 17.93139,37.7703 -4e-5,1.41272 -5.8209,6.11657 -8.69975,7.03028 -2.51912,0.79954 -20.30022,17.84612 -20.30022,19.46165 0,0.60214 -1.575,3.55693 -3.5,6.56619 -1.925,3.00926 -3.5,5.9491 -3.5,6.53298 0,0.58389 -0.38968,1.843 -0.86596,2.79804 -1.61183,3.23207 -3.38246,8.72054 -3.86992,11.9957 -0.2668,1.7926 -0.88538,3.50665 -1.37461,3.80902 -0.48923,0.30236 -0.89202,2.43569 -0.89509,4.74073 -0.003,2.30504 -0.43188,5.76598 -0.95291,7.69098 -1.42545,5.26641 -1.90552,12.79029 -1.978,31 l -0.0657,16.5 -5.07761,3.77101 c -6.8028,5.05229 -35.28221,23.81585 -40.9202,26.96015 -5.79847,3.2338 -17.97987,10.50053 -25,14.91359 -3.025,1.9016 -8.65,4.94576 -12.5,6.7648 -7.11853,3.36335 -12.88906,6.20086 -16.17664,7.95445 -1.69656,0.90494 -7.74911,3.60129 -14.82336,6.60367 -1.65,0.70027 -5.025,1.86684 -7.5,2.59238 -2.475,0.72553 -5.38763,1.90883 -6.47251,2.62955 -1.08487,0.72072 -2.97082,1.3104 -4.19098,1.3104 -1.22016,0 -2.46721,0.40247 -2.77123,0.89437 -0.30401,0.4919 -2.24306,1.1378 -4.30901,1.43532 -2.06595,0.29753 -6.00627,1.06893 -8.75627,1.71421 -2.75,0.64529 -8.6,1.38208 -13,1.63733 -4.4,0.25525 -8.41239,0.86627 -8.91641,1.35784 -0.50403,0.49157 -0.96996,11.82137 -1.0354,25.17734 -0.0769,15.68695 -0.51145,24.99161 -1.22761,26.28359 -1.03238,1.86244 -2.68686,8.60875 -3.98747,16.25927 -0.30475,1.7926 -0.95437,3.50665 -1.4436,3.80902 -0.48923,0.30236 -0.88951,1.2606 -0.88951,2.12943 0,1.331 -5.99833,14.35267 -8.89145,19.30228 -0.48222,0.825 -1.43638,2.70279 -2.12036,4.17286 -0.68397,1.47007 -2.87362,4.70866 -4.86589,7.19685 -1.99226,2.4882 -4.7473,6.09082 -6.1223,8.00582 -5.17615,7.20899 -19.76653,18.91016 -29,23.25738 -12.76501,6.00991 -16.05843,7.13417 -26,8.87552 -8.98826,1.57436 -13.97125,1.6833 -23.12563,0.50561 z m -17.37437,-41.06213 c -19.80997,-6.74362 -34.40931,-19.79883 -44.445671,-39.74478 -4.03253,-8.01412 -6.05433,-13.13776 -6.05433,-15.34282 0,-1.0403 -0.40614,-2.67284 -0.90254,-3.62788 -0.49639,-0.95504 -1.36064,-3.53643 -1.92054,-5.73643 -0.55991,-2.2 -1.79404,-6.79277 -2.74252,-10.20615 -1.41733,-5.10071 -1.63261,-8.94043 -1.2086,-21.55677 0.28374,-8.44284 0.97086,-16.22507 1.52692,-17.29385 0.55606,-1.06878 1.53749,-4.17435 2.18095,-6.90127 0.64346,-2.72692 1.76332,-6.32692 2.48858,-8 0.72525,-1.67308 1.90109,-4.9609 2.61298,-7.30627 0.71188,-2.34538 1.89518,-4.76298 2.62955,-5.37245 0.73437,-0.60947 1.33522,-1.52772 1.33522,-2.04055 0,-1.73009 7.77729,-12.29113 12.155041,-16.50572 4.78376,-4.60549 15.98167,-11.31697 18.882009,-11.31697 1.014701,0 2.123031,-0.45 2.462951,-1 0.3622,-0.58606 6.15738,-1 14,-1 7.84262,0 13.6378,0.41394 14,1 0.33992,0.55 1.5615,1 2.71463,1 1.15312,0 3.48906,1.03857 5.19098,2.30792 1.70191,1.26936 4.66939,3.04339 6.59439,3.94228 4.32834,2.02116 12.56172,10.43199 17.37531,17.7498 1.98982,3.025 4.10169,6.07809 4.69306,6.78464 0.59136,0.70655 0.89983,1.81075 0.68549,2.45377 -0.21434,0.64302 -2.24044,-1.33611 -4.50244,-4.39808 -4.52099,-6.11984 -12.80354,-13.52955 -18.25142,-16.32802 -6.40421,-3.28973 -6.96158,-3.51231 -8.7953,-3.51231 -1.00234,0 -2.69595,-0.66069 -3.76357,-1.4682 -2.57296,-1.94609 -14.32935,-2.01173 -18.11009,-0.10112 -1.55707,0.78687 -5.12775,2.4855 -7.93484,3.77473 -12.26685,5.63389 -22.54274,23.66382 -26.38491,46.29459 -1.15355,6.79447 -0.92446,25.49338 0.41653,34 2.53047,16.05201 4.003,21.31638 8.77745,31.37974 7.97087,16.8006 18.7345,29.3014 29.29473,34.02266 1.65,0.73768 4.19443,1.96142 5.65429,2.71942 1.7036,0.88455 6.01686,1.37818 12.0424,1.37818 h 9.3881 l 9.4203,-6.25 c 5.91445,-3.92401 10.8463,-8.11079 13.25198,-11.25 4.40597,-5.74941 11.74293,-20.59406 11.74293,-23.75913 0,-1.35206 0.35,-1.79084 0.94992,-1.19087 3.3364,3.33669 -8.14924,28.2334 -17.80589,38.59675 -10.61281,11.38948 -17.94448,14.7499 -33.64403,15.42051 -8.22474,0.35132 -11.06516,0.0645 -16,-1.61535 z m 234,-69.60519 c -3.3,-0.76621 -8.925,-1.83777 -12.5,-2.38124 -3.575,-0.54348 -7.80465,-1.43304 -9.39922,-1.97681 -1.59458,-0.54377 -4.33993,-0.98867 -6.10078,-0.98867 -1.76085,0 -4.5062,-0.39393 -6.10078,-0.87541 -1.59457,-0.48147 -5.37422,-1.40503 -8.39922,-2.05235 -3.025,-0.64731 -10,-2.30457 -15.5,-3.6828 -17.9765,-4.50467 -24.00919,-6.213 -28.28393,-8.00941 -1.80616,-0.75902 -4.1421,-1.38003 -5.19098,-1.38003 -1.04888,0 -2.18517,-0.45 -2.52509,-1 -0.33992,-0.55 -1.51803,-1 -2.61803,-1 -1.1,0 -1.72328,-0.44775 -1.38506,-0.995 0.33822,-0.54725 2.05228,-0.96605 3.80902,-0.93066 3.58464,0.0722 10.43277,-1.16255 15.69407,-2.82974 1.925,-0.60999 5.525,-1.65445 8,-2.32102 8.36185,-2.25201 19.60206,-6.19231 20.648,-7.23824 0.37693,-0.37694 1.43595,-0.68534 2.35338,-0.68534 0.91742,0 4.77992,-1.49358 8.58333,-3.31907 3.80341,-1.82549 8.49029,-3.90443 10.41529,-4.61985 6.99722,-2.60053 45.60555,-21.48986 51.00429,-24.95413 4.5918,-2.94646 18.81874,-11.25373 26.24391,-15.32411 1.72284,-0.94443 4.95929,-3.02767 7.19212,-4.62942 3.87653,-2.78088 11.20682,-7.15342 11.99227,-7.15342 0.85359,0 2.56741,6.56061 2.56741,9.82823 0,1.94137 0.40853,4.91172 0.90785,6.60077 0.49931,1.68905 1.68609,5.771 2.63729,9.071 0.95119,3.3 2.18684,7.575 2.74588,9.5 1.17663,4.05157 3.38545,9.73281 4.75742,12.23643 2.07155,3.78022 1.0702,11.39175 -2.36025,17.94091 -5.76766,11.01119 -8.50714,14.62838 -15.4354,20.38076 -13.56322,11.26126 -23.53399,14.50517 -43.99013,14.31182 -7.73175,-0.0731 -16.39191,-0.74056 -19.76266,-1.5232 z m 127.13009,-31.86831 c -0.32114,-0.83687 0.30572,-3.77853 1.39301,-6.53702 1.0873,-2.75849 1.9769,-6.09721 1.9769,-7.41939 0,-1.32218 0.45,-2.68208 1,-3.022 0.55,-0.33992 1,-1.68992 1,-3 0,-1.31008 0.45,-2.66008 1,-3 0.55,-0.33992 1,-1.49758 1,-2.57259 0,-1.075 0.4282,-2.73594 0.95156,-3.69098 1.02424,-1.86907 4.71894,-10.63449 6.42229,-15.23643 1.38742,-3.7484 7.61722,-13.63298 12.02117,-19.07352 5.40373,-6.67566 6.46969,-6.6591 8.50439,0.13213 1.22308,4.08226 1.223,4.08248 -3.58815,9.61987 -5.99762,6.90296 -12.26143,15.62536 -14.84245,20.66822 -1.08285,2.11569 -2.41302,4.70319 -2.95594,5.75 -0.54292,1.04682 -1.33042,1.9033 -1.75,1.9033 -0.41958,0 -0.76287,0.6627 -0.76287,1.47266 0,1.30592 -3.60715,10.05684 -6.08566,14.76377 -0.50288,0.95504 -0.91434,2.62136 -0.91434,3.70295 0,2.36804 -2.02941,7.06062 -3.05353,7.06062 -0.40287,0 -0.99524,-0.68471 -1.31638,-1.52159 z m -33.01508,-28.94323 c -0.88826,-1.35565 -1.61501,-3.35409 -1.61501,-4.44098 0,-1.08689 -0.39812,-2.22222 -0.8847,-2.52294 -0.48659,-0.30073 -1.11868,-1.78979 -1.40465,-3.30902 -0.28597,-1.51923 -1.26016,-5.23724 -2.16488,-8.26224 -1.54394,-5.16232 -2.22341,-8.41172 -4.60034,-22 -1.49363,-8.53872 -2.57993,-35.56255 -1.8089,-45 1.24217,-15.20427 3.7512,-27.1639 7.4793,-35.65113 0.7613,-1.73312 1.38417,-3.60825 1.38417,-4.16695 0,-1.91101 7.19752,-14.6759 11.28212,-20.00897 4.38939,-5.73103 11.37535,-12.17295 13.20099,-12.17295 1.15143,0 11.02582,19.11812 14.64184,28.34854 1.10995,2.8333 2.4359,5.57896 2.94657,6.10146 0.51066,0.5225 0.92848,1.95844 0.92848,3.19098 0,1.23254 0.45,2.5191 1,2.85902 0.55,0.33992 1,1.66138 1,2.93657 0,1.2752 0.62761,2.83941 1.39468,3.47603 0.76708,0.63661 1.66708,2.71671 2,4.62244 0.33293,1.90573 0.88004,5.04413 1.21581,6.97423 0.33577,1.9301 1.01077,3.75665 1.5,4.05902 0.48923,0.30236 0.89228,1.76069 0.89567,3.24073 0.003,1.48004 0.67839,3.97992 1.5,5.55529 0.82161,1.57537 1.49384,4.13631 1.49384,5.69098 0,1.55467 0.40247,3.07541 0.89437,3.37943 0.87666,0.5418 1.62638,4.32168 2.74125,13.82051 0.52232,4.45031 0.34744,4.93124 -2.72721,7.5 -1.80693,1.50962 -4.43802,4.04148 -5.84687,5.62635 -1.40885,1.58488 -6.38654,6.84444 -11.06154,11.68793 -11.84059,12.26731 -20.19107,22.85713 -28.52834,36.1787 -3.37253,5.38874 -4.56392,5.78612 -6.85665,2.28697 z M 204.04119,315.16564 c -10.14828,-10.23652 -18.95303,-18.61186 -19.56612,-18.61186 -0.61308,0 -3.6775,-1.73762 -6.80982,-3.86139 -5.01629,-3.40112 -12.27823,-7.13584 -20.19513,-10.38609 -9.94653,-4.08351 -35.30634,-5.60716 -45.5,-2.7337 -1.65,0.46511 -5.025,1.41151 -7.5,2.10311 -7.324851,2.0468 -14.90245,5.84082 -25,12.51721 -9.981811,6.59986 -12.723031,8.86612 -17.291561,14.29551 -2.77508,3.298 -5.20455,3.51713 -2.96448,0.26739 0.64527,-0.93612 2.58918,-4.62704 4.31979,-8.20204 8.46414,-17.48475 24.326031,-30.61653 45.765581,-37.88851 12.69216,-4.30499 13.37637,-5.60334 5.67067,-10.76063 -2.75,-1.84053 -5.45,-3.7028 -6,-4.13837 -0.55,-0.43558 -6.85,-3.63276 -14,-7.10484 -7.15,-3.47209 -14.35,-7.02107 -16,-7.88662 -4.424071,-2.32079 -5.595631,-2.87945 -10.000001,-4.76858 -2.2,-0.94362 -5.8,-2.60471 -8,-3.69132 -4.92277,-2.4314 -26.54283,-10.54309 -32,-12.00616 -2.2,-0.58982 -6.025,-1.60889 -8.5,-2.26459 -4.95288,-1.31216 -6.80046,-4.16495 -5.65449,-8.73086 0.86118,-3.43124 5.29548,-5.28949 16.15449,-6.76975 4.95,-0.67477 9.45,-1.58061 10,-2.01299 1.92271,-1.51152 14.21057,-2.16972 41.000001,-2.19616 25.18913,-0.0249 31.50107,0.38092 47,3.0216 12.11339,2.06386 16.70983,3.43352 37.5,11.17431 14.50175,5.39942 38.81926,9.45642 51.5,8.59196 5.58207,-0.38054 11.4685,-1.51067 15.5,-2.97584 3.575,-1.29927 12.125,-4.40324 19,-6.89773 14.40804,-5.22772 20.45023,-7.74366 42.5,-17.69677 42.33089,-19.10786 48.81307,-21.82342 61,-25.55453 4.95,-1.51547 9.9,-3.08396 11,-3.48553 1.1,-0.40157 3.9125,-1.23142 6.25,-1.84411 2.3375,-0.61269 5.9375,-1.57021 8,-2.12783 15.6608,-4.23407 32.54083,-5.33278 39.97976,-2.60225 2.07363,0.76115 5.71136,1.91279 8.08384,2.5592 5.05156,1.37636 5.10881,3.40761 0.10939,3.88107 -1.88265,0.17829 -6.57299,1.22885 -10.42299,2.33458 -3.85,1.10573 -8.35,2.36627 -10,2.8012 -4.98522,1.31408 -15.75153,5.18721 -19.93783,7.17255 -2.16581,1.02712 -4.41081,1.8675 -4.98891,1.8675 -1.47599,0 -24.74797,13.46458 -32.57326,18.84607 -3.575,2.45855 -8.75,6.32194 -11.5,8.58532 -2.75,2.26338 -6.575,5.30065 -8.5,6.74949 -1.925,1.44884 -5.75,4.69891 -8.5,7.22237 -2.75,2.52346 -5.25681,4.59006 -5.57069,4.59243 -0.31389,0.002 -4.81389,4.80627 -10,10.67532 -5.18612,5.86906 -10.32931,11.60962 -11.42931,12.75681 -1.1,1.14719 -3.32461,3.88273 -4.94357,6.07899 -1.61896,2.19626 -4.40763,5.3432 -6.19705,6.9932 -2.54661,2.34819 -23.87247,33.16722 -28.85938,41.70607 -0.55,0.94174 -2.73453,4.31813 -4.85451,7.50309 -9.26576,13.92044 -17.64549,27.31555 -17.64549,28.20654 0,1.40841 -0.96164,1.80898 -6.23876,2.59879 l -4.73876,0.70923 z M 494.92012,162.75362 c -1.74868,-1.47286 -22.16736,-8.92633 -37.45,-13.67043 -4.125,-1.2805 -9.75,-3.04901 -12.5,-3.93003 -2.75,-0.88101 -7.475,-2.35581 -10.5,-3.27733 -3.025,-0.92152 -5.9275,-2.04596 -6.45,-2.49877 -0.5225,-0.4528 -2.0975,-0.83759 -3.5,-0.85508 -1.4025,-0.0175 -3.42351,-0.6925 -4.49113,-1.5 -1.06762,-0.80751 -2.95356,-1.4682 -4.19098,-1.4682 -1.23742,0 -2.52797,-0.45 -2.86789,-1 -0.33992,-0.55 -2.13992,-1 -4,-1 -1.86008,0 -3.66008,-0.45 -4,-1 -0.33992,-0.55 -1.70444,-1 -3.03227,-1 -1.32782,0 -4.40021,-0.96487 -6.82752,-2.14415 l -4.4133,-2.14414 -7.36346,2.7362 c -4.0499,1.50492 -8.48845,2.95368 -9.86345,3.21947 -1.375,0.2658 -3.4,0.86871 -4.5,1.3398 -8.69848,3.72527 -44.58029,5.50786 -64.5,3.20433 -12.59347,-1.45632 -24.28891,-3.77331 -31,-6.14142 -1.375,-0.48519 -6.4554,-2.12138 -11.28978,-3.63598 -4.83437,-1.51459 -9.02343,-3.13188 -9.30901,-3.59396 -0.28559,-0.46208 2.09481,-0.84341 5.28977,-0.8474 7.71715,-0.01 43.7861,-2.76415 52.72444,-4.02647 20.21908,-2.85544 26.58458,-4.55095 26.58458,-7.08103 0,-1.29646 -1.04094,-1.96741 -3.75,-2.41707 -2.0625,-0.34235 -5.1,-1.08296 -6.75,-1.64579 -4.13958,-1.41206 -9.25765,-2.81355 -14,-3.83365 -2.2,-0.47323 -7.6,-1.81305 -12,-2.97738 -18.72935,-4.956156 -20.06702,-6.020656 -6.60079,-5.252846 5.87875,0.33519 10.0365,0.081 12.25,-0.74904 1.84294,-0.69105 9.65079,-1.66319 17.35079,-2.16031 7.7,-0.49712 20.075,-1.34954 27.5,-1.89428 7.425,-0.54473 19.35,-1.31993 26.5,-1.72265 7.15,-0.40273 13.675,-1.18122 14.5,-1.72997 0.825,-0.54876 7.8,-1.35259 15.5,-1.786283 24.52695,-1.38146 60.96838,-4.26421 64.5,-5.10236 2.32798,-0.5525 18.33563,-1.8672 44.5,-3.65477 20.85054,-1.42453 36.00456,-2.82267 37.70211,-3.47849 2.96517,-1.14554 4.08092,0.43874 2.26299,3.21326 -0.90397,1.37963 -2.97646,4.93711 -4.60554,7.90551 l -2.96197,5.397093 2.55769,1.16536 c 1.9948,0.90889 5.80243,0.79833 17.3012,-0.50234 15.76968,-1.78377 26.65941,-3.35035 29.49352,-4.24289 2.89132,-0.910563 1.96618,0.92713 -1.73595,3.44824 -1.90976,1.30053 -4.45054,3.21303 -5.64618,4.25 -1.19564,1.03698 -2.71029,1.88541 -3.36589,1.88541 -0.6556,0 -1.99116,0.88306 -2.96791,1.96235 -0.97675,1.0793 -3.3577,2.484396 -5.29101,3.122446 -1.93331,0.63805 -5.04483,2.19819 -6.9145,3.46698 -4.40514,2.98941 -20.80884,8.44822 -25.38686,8.44822 -6.52632,0 -15.38073,3.74153 -19.58161,8.27443 -2.12305,2.29084 -4.38473,5.16973 -5.02596,6.39751 -0.64123,1.22779 -1.67492,2.81638 -2.2971,3.5302 -0.62219,0.71382 -2.59145,3.54786 -4.37614,6.29786 -15.67883,24.1592 -18.27014,27.17675 -21.21089,24.69984 z"
       id="path177" />
  </g>
</svg>
